<svg xmlns="http://www.w3.org/2000/svg" width="25.307" height="25.307" viewBox="0 0 25.307 25.307"><defs><style>.a{fill:#3a4457;stroke:#3a4457;stroke-width:0.5px;}</style></defs><g transform="translate(0.25 0.25)"><path class="a" d="M171.531,260.989a3.028,3.028,0,0,0-3.108-.457,2.47,2.47,0,0,0-1.251,2.361,4.335,4.335,0,0,0,1.034,2.554,8.333,8.333,0,0,0,3.178,2.3.363.363,0,0,0,.295,0,8.334,8.334,0,0,0,3.178-2.3,4.336,4.336,0,0,0,1.034-2.554,2.47,2.47,0,0,0-1.251-2.361A3.028,3.028,0,0,0,171.531,260.989Zm3.633,1.881a3.568,3.568,0,0,1-.874,2.121,7.5,7.5,0,0,1-2.759,2.026,7.5,7.5,0,0,1-2.759-2.026,3.568,3.568,0,0,1-.874-2.121,1.763,1.763,0,0,1,.86-1.693,1.577,1.577,0,0,1,.736-.172,3.151,3.151,0,0,1,1.819.721.363.363,0,0,0,.435,0,2.467,2.467,0,0,1,2.555-.549A1.763,1.763,0,0,1,175.163,262.87Z" transform="translate(-159.071 -247.667)"/><path class="a" d="M4.411,24.08H1.332a.606.606,0,0,1-.606-.606V9.26a1.324,1.324,0,0,0,.606.146H19.194a.363.363,0,1,0,0-.727H1.332a.606.606,0,0,1-.606-.606V3.955a.606.606,0,0,1,.606-.606H3.365v.863A1.334,1.334,0,0,0,4.7,5.545h.093A1.335,1.335,0,0,0,6.074,4.416c0-.011,0-.022,0-.033s0-.033.005-.05q.005-.059.005-.119V3.35H7.843a.363.363,0,1,0,0-.727H6.089V1.332A1.334,1.334,0,0,0,4.757,0H4.7A1.334,1.334,0,0,0,3.365,1.332v1.29H1.332A1.334,1.334,0,0,0,0,3.955V23.474a1.334,1.334,0,0,0,1.332,1.332H4.411a.363.363,0,1,0,0-.727ZM4.092,1.332A.606.606,0,0,1,4.7.727h.059a.606.606,0,0,1,.606.606V4.213a.606.606,0,0,1-.606.606H4.7a.606.606,0,0,1-.606-.606Z"/><path class="a" d="M203.671,2.623h-1.92V1.332A1.334,1.334,0,0,0,200.419,0h-.059a1.334,1.334,0,0,0-1.332,1.332v1.29h-9.292a.363.363,0,1,0,0,.727h9.292v.863a1.334,1.334,0,0,0,1.332,1.332h.059a1.334,1.334,0,0,0,1.332-1.332V3.35h1.92a.606.606,0,0,1,.606.606V8.074a.606.606,0,0,1-.606.606h-2.584a.363.363,0,0,0,0,.727h2.584a1.324,1.324,0,0,0,.606-.146v7.3a.363.363,0,0,0,.727,0V3.955A1.334,1.334,0,0,0,203.671,2.623Zm-2.646,1.59a.606.606,0,0,1-.606.606h-.059a.606.606,0,0,1-.606-.606V1.332a.606.606,0,0,1,.606-.606h.059a.606.606,0,0,1,.606.606Z" transform="translate(-180.197)"/><path class="a" d="M137.24,369.39a.363.363,0,0,0-.363.363v5.214a.606.606,0,0,1-.606.606H118.9a.363.363,0,0,0,0,.727h17.368a1.334,1.334,0,0,0,1.332-1.332v-5.214A.363.363,0,0,0,137.24,369.39Z" transform="translate(-112.797 -351.493)"/><path class="a" d="M142.548,117a.363.363,0,0,0,.363.363h10.38a.363.363,0,0,0,0-.727h-10.38A.363.363,0,0,0,142.548,117Z" transform="translate(-135.641 -110.982)"/></g></svg>