<svg xmlns="http://www.w3.org/2000/svg" xmlns:xlink="http://www.w3.org/1999/xlink" width="742.88" height="456" viewBox="0 0 742.88 456"><defs><style>.a{fill:#7b90a5;}.b{fill:url(#a);}.c{fill:url(#d);}.d,.e,.f,.g,.h{fill:#fff;}.d{font-size:94px;}.d,.e{font-family:Raleway-Bold, Raleway;}.d,.e,.f{font-weight:700;}.e,.f{font-size:24px;}.f{font-family:Poppins-Bold, Poppins;}.g{font-size:21px;}.g,.h{font-family:Raleway-SemiBold, Raleway;font-weight:600;opacity:0.5;}.h{font-size:18px;}.i{fill:url(#g);}.j{fill:url(#j);}.k{fill:url(#k);}.l{fill:url(#l);}.m{fill:url(#m);}.n{fill:url(#n);}.o{filter:url(#h);}.p{filter:url(#e);}.q{filter:url(#b);}</style><linearGradient id="a" x1="0.5" x2="0.5" y2="1" gradientUnits="objectBoundingBox"><stop offset="0" stop-color="#a3b1c1"/><stop offset="1" stop-color="#7b90a5"/></linearGradient><filter id="b" x="0" y="0" width="742.841" height="456" filterUnits="userSpaceOnUse"><feOffset dy="10" input="SourceAlpha"/><feGaussianBlur stdDeviation="10" result="c"/><feFlood flood-color="#7b90a5" flood-opacity="0.059"/><feComposite operator="in" in2="c"/><feComposite in="SourceGraphic"/></filter><linearGradient id="d" x1="0.5" x2="0.5" y2="1" gradientUnits="objectBoundingBox"><stop offset="0" stop-color="#7b90a5"/><stop offset="1" stop-color="#a3b1c1"/></linearGradient><filter id="e" x="0" y="0.009" width="742.88" height="455.991" filterUnits="userSpaceOnUse"><feOffset dy="10" input="SourceAlpha"/><feGaussianBlur stdDeviation="10" result="f"/><feFlood flood-color="#7b90a5" flood-opacity="0.059"/><feComposite operator="in" in2="f"/><feComposite in="SourceGraphic"/></filter><radialGradient id="g" cx="0.5" cy="0.5" r="0.49" gradientTransform="translate(-0.003 0.018) scale(1 1.041)" gradientUnits="objectBoundingBox"><stop offset="0" stop-color="#cbd5e1"/><stop offset="1" stop-color="#7b90a5"/></radialGradient><filter id="h" x="62.582" y="78.575" width="285.439" height="285.333" filterUnits="userSpaceOnUse"><feOffset dy="3" input="SourceAlpha"/><feGaussianBlur stdDeviation="3" result="i"/><feFlood flood-color="#7b90a5"/><feComposite operator="in" in2="i"/><feComposite in="SourceGraphic"/></filter><linearGradient id="j" x1="0.807" y1="0.448" x2="0.023" y2="0.499" gradientTransform="matrix(1, 0, 0, 1, 0, 0)" xlink:href="#g"/><linearGradient id="k" x1="0.501" y1="0.388" x2="0.571" y2="0.871" gradientUnits="objectBoundingBox"><stop offset="0" stop-color="#7b90a5"/><stop offset="1" stop-color="#cbd5e1"/></linearGradient><linearGradient id="l" x1="0" y1="0.5" x2="1" y2="0.5" gradientTransform="matrix(1, 0, 0, 1, 0, 0)" xlink:href="#g"/><linearGradient id="m" x1="0.618" y1="0.183" x2="0.353" y2="0.894" xlink:href="#k"/><linearGradient id="n" x1="0.428" y1="0.691" x2="0.525" y2="0.267" gradientUnits="objectBoundingBox"><stop offset="0" stop-color="#cbd5e1"/><stop offset="0.812" stop-color="#7b90a5"/><stop offset="1" stop-color="#7b90a5"/></linearGradient></defs><g transform="translate(-4380 -1777)"><rect class="a" width="683" height="396" transform="translate(4410 1797)"/><g class="q" transform="matrix(1, 0, 0, 1, 4380, 1777)"><path class="b" d="M3569,2193.919l682.841-396H3569Z" transform="translate(-3539 -1777.92)"/></g><g class="p" transform="matrix(1, 0, 0, 1, 4380, 1777)"><path class="c" d="M3569,2193.919h682.88V1797.927Z" transform="translate(-3539 -1777.92)"/></g><text class="d" transform="translate(4751 1956)"><tspan x="0" y="0">Silver</tspan></text><text class="e" transform="translate(4860 2060)"><tspan x="0" y="0">Undefined</tspan></text><text class="e" transform="translate(4751 2060)"><tspan x="0" y="0">Active</tspan></text><text class="f" transform="translate(4751 2148)"><tspan x="0" y="0">$4,500</tspan></text><text class="g" transform="translate(4751 1855)"><tspan x="0" y="0">TIER LEVEL</tspan></text><text class="h" transform="translate(4751 2021)"><tspan x="0" y="0">STATUS</tspan></text><text class="h" transform="translate(4751 2109)"><tspan x="0" y="0">LIFETIME PURCHASE VALUE</tspan></text><text class="h" transform="translate(4860 2021)"><tspan x="0" y="0">EXPIRY</tspan></text><g transform="translate(4451.582 1861.575)"><g class="o" transform="matrix(1, 0, 0, 1, -71.58, -84.57)"><path class="i" d="M273.377,199.227l81.772-62.8-101.591-2.77L221.441,33.309l-.013.035-.015-.035L189.305,133.655l-101.6,2.77,81.774,62.8L140.62,300.643l80.807-60.161,80.816,60.161Z" transform="translate(-16.13 51.27)"/></g><path class="j" d="M194.585,183.86l.007-150.55L226.71,133.655Z" transform="translate(-60.861 -33.309)"/><path class="k" d="M194.585,163.148l133.651-47.393-81.708,62.761Z" transform="translate(-60.861 -12.598)"/><path class="l" d="M246.528,169l28.841,101.513L194.585,153.633Z" transform="translate(-60.861 -3.083)"/><path class="m" d="M158.8,169,129.964,270.514l80.777-116.881Z" transform="translate(-77.095 -3.083)"/><path class="n" d="M221.608,163.148,87.963,115.755l81.708,62.761Z" transform="translate(-87.646 -12.598)"/></g></g></svg>