<svg xmlns="http://www.w3.org/2000/svg" width="26.523" height="26.524" viewBox="0 0 26.523 26.524"><defs><style>.a{fill:none;stroke:#3a4457;stroke-width:2px;}</style></defs><path class="a" d="M23.8,17.314l-5.36-2.3a1.148,1.148,0,0,0-1.34.33l-2.374,2.9A17.738,17.738,0,0,1,6.25,9.768l2.9-2.374a1.146,1.146,0,0,0,.33-1.34L7.183.695A1.156,1.156,0,0,0,5.867.029L.89,1.178A1.148,1.148,0,0,0,0,2.3,22.2,22.2,0,0,0,22.2,24.5a1.148,1.148,0,0,0,1.12-.89l1.148-4.977a1.162,1.162,0,0,0-.67-1.321Z" transform="translate(1 1.023)"/></svg>