<svg xmlns="http://www.w3.org/2000/svg" width="24.807" height="26.787" viewBox="0 0 24.807 26.787"><defs><style>.a{fill:#3a4457;}</style></defs><g transform="translate(-18.923 0)"><g transform="translate(18.923 0)"><path class="a" d="M43.207,23.23h-.893v-7a1.8,1.8,0,0,0-1.793-1.793h-.3V9.953A1.8,1.8,0,0,0,38.958,8.24V3.453a.521.521,0,0,0-.155-.372,1.74,1.74,0,0,0-.291-2.07L37.653.153a.523.523,0,0,0-.74,0l-.858.858a1.74,1.74,0,0,0-.291,2.07.521.521,0,0,0-.155.372V8.16h-2.6V3.453a.521.521,0,0,0-.155-.372,1.74,1.74,0,0,0-.291-2.07L31.7.153a.523.523,0,0,0-.74,0l-.858.858a1.74,1.74,0,0,0-.291,2.07.521.521,0,0,0-.155.372V8.16h-2.6V3.453a.521.521,0,0,0-.155-.372,1.74,1.74,0,0,0-.291-2.07L25.753.153a.523.523,0,0,0-.74,0l-.858.858a1.74,1.74,0,0,0-.291,2.07.521.521,0,0,0-.155.372V8.236a1.8,1.8,0,0,0-1.276,1.717v4.487h-.3a1.8,1.8,0,0,0-1.793,1.793v7h-.893a.523.523,0,0,0-.523.523,3.038,3.038,0,0,0,3.034,3.034H40.7a3.038,3.038,0,0,0,3.034-3.034A.523.523,0,0,0,43.207,23.23ZM36.8,1.751l.488-.488.488.488a.69.69,0,1,1-.976,0Zm-.14,2.225h1.256V8.16H36.656ZM30.845,1.751l.488-.488.488.488a.69.69,0,1,1-.976,0Zm-.14,2.225h1.256V8.16H30.705Zm-5.95,0H26.01V8.16H24.755Zm.14-2.225.488-.488.488.488a.69.69,0,1,1-.976,0Zm-1.416,8.2a.747.747,0,0,1,.747-.747h14.2a.747.747,0,0,1,.747.747v4.487h-15.7Zm-1.346,5.533H40.52a.747.747,0,0,1,.747.747v.583H40.3a2.02,2.02,0,0,0-2.018,2.018v.309a.972.972,0,1,1-1.943,0v-.309a2.018,2.018,0,0,0-4.036,0v.309a.972.972,0,0,1-1.943,0v-.309a2.018,2.018,0,0,0-4.036,0v.309a.972.972,0,1,1-1.943,0v-.309a2.02,2.02,0,0,0-2.018-2.018h-.972v-.583a.747.747,0,0,1,.747-.747ZM40.7,25.741H21.957a1.992,1.992,0,0,1-1.918-1.465h8.933a.523.523,0,0,0,0-1.046H21.386V17.862h.972a.973.973,0,0,1,.972.972v.309a2.018,2.018,0,1,0,4.036,0v-.309a.972.972,0,0,1,1.943,0v.309a2.018,2.018,0,1,0,4.036,0v-.309a.972.972,0,0,1,1.943,0v.309a2.018,2.018,0,1,0,4.036,0v-.309a.973.973,0,0,1,.972-.972h.972V23.23H33.681a.523.523,0,1,0,0,1.046h8.933A1.992,1.992,0,0,1,40.7,25.741Z" transform="translate(-18.923 0)"/><path class="a" d="M246.523,444a.523.523,0,1,0,.37.153A.527.527,0,0,0,246.523,444Z" transform="translate(-234.12 -420.771)"/></g></g></svg>